<svg width="105" height="33" viewBox="0 0 105 33" fill="none" xmlns="http://www.w3.org/2000/svg">
<path d="M100.521 13.8524C97.7772 13.8524 95.8549 11.884 95.8549 9.06935C95.8549 6.21793 97.7399 4.24953 100.446 4.24953C103.208 4.24953 104.963 6.07076 104.963 8.90378V9.58444L98.0199 9.60284C98.1878 11.2033 99.0464 12.0127 100.558 12.0127C101.809 12.0127 102.63 11.5344 102.891 10.6698H105C104.608 12.6566 102.928 13.8524 100.521 13.8524ZM100.465 6.08915C99.121 6.08915 98.2998 6.80661 98.0759 8.16793H102.704C102.704 6.91698 101.827 6.08915 100.465 6.08915Z" fill="#181818"/>
<path d="M88.1984 13.6132H83.2899V0.165559H88.0677C92.099 0.165559 94.8799 2.9066 94.8799 6.91698C94.8799 10.8722 92.155 13.6132 88.1984 13.6132ZM87.8438 2.33632H85.6788V11.4425H87.9744C90.6993 11.4425 92.3603 9.71321 92.3603 6.91698C92.3603 4.06556 90.6619 2.33632 87.8438 2.33632Z" fill="#181818"/>
<path d="M79.836 2.70425C79.0522 2.70425 78.4363 2.09717 78.4363 1.34293C78.4363 0.58868 79.0522 0 79.836 0C80.5826 0 81.1985 0.58868 81.1985 1.34293C81.1985 2.09717 80.5826 2.70425 79.836 2.70425ZM78.6975 13.6132V4.52548H80.9745V13.6132H78.6975Z" fill="#181818"/>
<path d="M64.8351 13.6132H62.5582V4.52547H64.6485L64.8351 5.59245C65.3017 4.83821 66.2349 4.24953 67.56 4.24953C68.9598 4.24953 69.9303 4.93019 70.4155 5.97878C70.8821 4.93019 71.9646 4.24953 73.3643 4.24953C75.604 4.24953 76.8357 5.57406 76.8357 7.67123V13.6132H74.5775V8.25991C74.5775 6.95378 73.8683 6.27312 72.7858 6.27312C71.6846 6.27312 70.8448 6.97217 70.8448 8.46227V13.6132H68.5678V8.24151C68.5678 6.97217 67.8773 6.29151 66.7948 6.29151C65.7123 6.29151 64.8351 6.99057 64.8351 8.46227V13.6132Z" fill="#181818"/>
<path d="M56.6671 13.8524C53.9235 13.8524 52.0012 11.884 52.0012 9.06935C52.0012 6.21793 53.8862 4.24953 56.5924 4.24953C59.3546 4.24953 61.109 6.07076 61.109 8.90378V9.58444L54.1662 9.60284C54.3341 11.2033 55.1927 12.0127 56.7044 12.0127C57.9549 12.0127 58.776 11.5344 59.0373 10.6698H61.1463C60.7544 12.6566 59.0747 13.8524 56.6671 13.8524ZM56.6111 6.08915C55.2673 6.08915 54.4461 6.80661 54.2222 8.16793H58.8507C58.8507 6.91698 57.9735 6.08915 56.6111 6.08915Z" fill="#181818"/>
<path d="M43.794 13.6132H41.405V0.165559H46.6121C49.7103 0.165559 51.5206 1.71084 51.5206 4.3599C51.5206 6.16274 50.6621 7.45047 49.0571 8.09434L51.6513 13.6132H49.0384L46.7241 8.59104H43.794V13.6132ZM43.794 2.26273V6.51226H46.6121C48.1239 6.51226 49.0197 5.72123 49.0197 4.3599C49.0197 3.01698 48.1239 2.26273 46.6121 2.26273H43.794Z" fill="#181818"/>
<path d="M28.1833 10.4317H18.6341V1.04382H9.48284C9.48284 6.23012 5.23877 10.4317 0 10.4317V19.4913H9.48284V28.8791H18.6341C18.6341 23.6928 18.6341 19.4913 28.1833 19.4913V10.4317Z" fill="#181818"/>
<path d="M40.7846 20.6874H41.8912C41.8996 20.6874 41.9038 20.6874 41.9038 20.6874C41.9038 20.6874 41.9038 20.6916 41.9038 20.6999V21.8066C41.9038 21.815 41.9038 21.8191 41.9038 21.8191C41.9038 21.8191 41.8996 21.8191 41.8912 21.8191H40.7846C40.7762 21.8191 40.772 21.8191 40.772 21.8191C40.772 21.8191 40.772 21.815 40.772 21.8066V20.6999C40.772 20.6916 40.772 20.6874 40.772 20.6874C40.772 20.6874 40.7762 20.6874 40.7846 20.6874ZM42.0421 20.6874H43.1488C43.1572 20.6874 43.1614 20.6874 43.1614 20.6874C43.1614 20.6874 43.1614 20.6916 43.1614 20.6999V21.8066C43.1614 21.815 43.1614 21.8191 43.1614 21.8191C43.1614 21.8191 43.1572 21.8191 43.1488 21.8191H42.0421C42.0338 21.8191 42.0296 21.8191 42.0296 21.8191C42.0296 21.8191 42.0296 21.815 42.0296 21.8066V20.6999C42.0296 20.6916 42.0296 20.6874 42.0296 20.6874C42.0296 20.6874 42.0338 20.6874 42.0421 20.6874ZM43.2997 20.6874H44.4063C44.4147 20.6874 44.4189 20.6874 44.4189 20.6874C44.4189 20.6874 44.4189 20.6916 44.4189 20.6999V21.8066C44.4189 21.815 44.4189 21.8191 44.4189 21.8191C44.4189 21.8191 44.4147 21.8191 44.4063 21.8191H43.2997C43.2913 21.8191 43.2871 21.8191 43.2871 21.8191C43.2871 21.8191 43.2871 21.815 43.2871 21.8066V20.6999C43.2871 20.6916 43.2871 20.6874 43.2871 20.6874C43.2871 20.6874 43.2913 20.6874 43.2997 20.6874ZM44.5572 20.6874H45.6639C45.6723 20.6874 45.6764 20.6874 45.6764 20.6874C45.6764 20.6874 45.6764 20.6916 45.6764 20.6999V21.8066C45.6764 21.815 45.6764 21.8191 45.6764 21.8191C45.6764 21.8191 45.6723 21.8191 45.6639 21.8191H44.5572C44.5488 21.8191 44.5447 21.8191 44.5447 21.8191C44.5447 21.8191 44.5447 21.815 44.5447 21.8066V20.6999C44.5447 20.6916 44.5447 20.6874 44.5447 20.6874C44.5447 20.6874 44.5488 20.6874 44.5572 20.6874ZM45.8148 20.6874H46.9214C46.9298 20.6874 46.934 20.6874 46.934 20.6874C46.934 20.6874 46.934 20.6916 46.934 20.6999V21.8066C46.934 21.815 46.934 21.8191 46.934 21.8191C46.934 21.8191 46.9298 21.8191 46.9214 21.8191H45.8148C45.8064 21.8191 45.8022 21.8191 45.8022 21.8191C45.8022 21.8191 45.8022 21.815 45.8022 21.8066V20.6999C45.8022 20.6916 45.8022 20.6874 45.8022 20.6874C45.8022 20.6874 45.8064 20.6874 45.8148 20.6874ZM43.2997 21.9449H44.4063C44.4147 21.9449 44.4189 21.9449 44.4189 21.9449C44.4189 21.9449 44.4189 21.9491 44.4189 21.9575V23.0641C44.4189 23.0725 44.4189 23.0767 44.4189 23.0767C44.4189 23.0767 44.4147 23.0767 44.4063 23.0767H43.2997C43.2913 23.0767 43.2871 23.0767 43.2871 23.0767C43.2871 23.0767 43.2871 23.0725 43.2871 23.0641V21.9575C43.2871 21.9491 43.2871 21.9449 43.2871 21.9449C43.2871 21.9449 43.2913 21.9449 43.2997 21.9449ZM43.2997 23.2024H44.4063C44.4147 23.2024 44.4189 23.2024 44.4189 23.2024C44.4189 23.2024 44.4189 23.2066 44.4189 23.215V24.3217C44.4189 24.33 44.4189 24.3342 44.4189 24.3342C44.4189 24.3342 44.4147 24.3342 44.4063 24.3342H43.2997C43.2913 24.3342 43.2871 24.3342 43.2871 24.3342C43.2871 24.3342 43.2871 24.33 43.2871 24.3217V23.215C43.2871 23.2066 43.2871 23.2024 43.2871 23.2024C43.2871 23.2024 43.2913 23.2024 43.2997 23.2024ZM43.2997 24.46H44.4063C44.4147 24.46 44.4189 24.46 44.4189 24.46C44.4189 24.46 44.4189 24.4642 44.4189 24.4726V25.5792C44.4189 25.5876 44.4189 25.5918 44.4189 25.5918C44.4189 25.5918 44.4147 25.5918 44.4063 25.5918H43.2997C43.2913 25.5918 43.2871 25.5918 43.2871 25.5918C43.2871 25.5918 43.2871 25.5876 43.2871 25.5792V24.4726C43.2871 24.4642 43.2871 24.46 43.2871 24.46C43.2871 24.46 43.2913 24.46 43.2997 24.46ZM43.2997 25.7175H44.4063C44.4147 25.7175 44.4189 25.7175 44.4189 25.7175C44.4189 25.7175 44.4189 25.7217 44.4189 25.7301V26.8367C44.4189 26.8451 44.4189 26.8493 44.4189 26.8493C44.4189 26.8493 44.4147 26.8493 44.4063 26.8493H43.2997C43.2913 26.8493 43.2871 26.8493 43.2871 26.8493C43.2871 26.8493 43.2871 26.8451 43.2871 26.8367V25.7301C43.2871 25.7217 43.2871 25.7175 43.2871 25.7175C43.2871 25.7175 43.2913 25.7175 43.2997 25.7175ZM43.2997 26.9751H44.4063C44.4147 26.9751 44.4189 26.9751 44.4189 26.9751C44.4189 26.9751 44.4189 26.9793 44.4189 26.9876V28.0943C44.4189 28.1027 44.4189 28.1069 44.4189 28.1069C44.4189 28.1069 44.4147 28.1069 44.4063 28.1069H43.2997C43.2913 28.1069 43.2871 28.1069 43.2871 28.1069C43.2871 28.1069 43.2871 28.1027 43.2871 28.0943V26.9876C43.2871 26.9793 43.2871 26.9751 43.2871 26.9751C43.2871 26.9751 43.2913 26.9751 43.2997 26.9751ZM43.2997 28.2326H44.4063C44.4147 28.2326 44.4189 28.2326 44.4189 28.2326C44.4189 28.2326 44.4189 28.2368 44.4189 28.2452V29.3518C44.4189 29.3602 44.4189 29.3644 44.4189 29.3644C44.4189 29.3644 44.4147 29.3644 44.4063 29.3644H43.2997C43.2913 29.3644 43.2871 29.3644 43.2871 29.3644C43.2871 29.3644 43.2871 29.3602 43.2871 29.3518V28.2452C43.2871 28.2368 43.2871 28.2326 43.2871 28.2326C43.2871 28.2326 43.2913 28.2326 43.2997 28.2326ZM49.2052 20.6874H50.3119C50.3202 20.6874 50.3244 20.6874 50.3244 20.6874C50.3244 20.6874 50.3244 20.6916 50.3244 20.6999V21.8066C50.3244 21.815 50.3244 21.8191 50.3244 21.8191C50.3244 21.8191 50.3202 21.8191 50.3119 21.8191H49.2052C49.1968 21.8191 49.1926 21.8191 49.1926 21.8191C49.1926 21.8191 49.1926 21.815 49.1926 21.8066V20.6999C49.1926 20.6916 49.1926 20.6874 49.1926 20.6874C49.1926 20.6874 49.1968 20.6874 49.2052 20.6874ZM50.4628 20.6874H51.5694C51.5778 20.6874 51.582 20.6874 51.582 20.6874C51.582 20.6874 51.582 20.6916 51.582 20.6999V21.8066C51.582 21.815 51.582 21.8191 51.582 21.8191C51.582 21.8191 51.5778 21.8191 51.5694 21.8191H50.4628C50.4544 21.8191 50.4502 21.8191 50.4502 21.8191C50.4502 21.8191 50.4502 21.815 50.4502 21.8066V20.6999C50.4502 20.6916 50.4502 20.6874 50.4502 20.6874C50.4502 20.6874 50.4544 20.6874 50.4628 20.6874ZM51.7203 20.6874H52.8269C52.8353 20.6874 52.8395 20.6874 52.8395 20.6874C52.8395 20.6874 52.8395 20.6916 52.8395 20.6999V21.8066C52.8395 21.815 52.8395 21.8191 52.8395 21.8191C52.8395 21.8191 52.8353 21.8191 52.8269 21.8191H51.7203C51.7119 21.8191 51.7077 21.8191 51.7077 21.8191C51.7077 21.8191 51.7077 21.815 51.7077 21.8066V20.6999C51.7077 20.6916 51.7077 20.6874 51.7077 20.6874C51.7077 20.6874 51.7119 20.6874 51.7203 20.6874ZM52.9778 20.6874H54.0845C54.0929 20.6874 54.0971 20.6874 54.0971 20.6874C54.0971 20.6874 54.0971 20.6916 54.0971 20.6999V21.8066C54.0971 21.815 54.0971 21.8191 54.0971 21.8191C54.0971 21.8191 54.0929 21.8191 54.0845 21.8191H52.9778C52.9695 21.8191 52.9653 21.8191 52.9653 21.8191C52.9653 21.8191 52.9653 21.815 52.9653 21.8066V20.6999C52.9653 20.6916 52.9653 20.6874 52.9653 20.6874C52.9653 20.6874 52.9695 20.6874 52.9778 20.6874ZM49.2052 21.9449H50.3119C50.3202 21.9449 50.3244 21.9449 50.3244 21.9449C50.3244 21.9449 50.3244 21.9491 50.3244 21.9575V23.0641C50.3244 23.0725 50.3244 23.0767 50.3244 23.0767C50.3244 23.0767 50.3202 23.0767 50.3119 23.0767H49.2052C49.1968 23.0767 49.1926 23.0767 49.1926 23.0767C49.1926 23.0767 49.1926 23.0725 49.1926 23.0641V21.9575C49.1926 21.9491 49.1926 21.9449 49.1926 21.9449C49.1926 21.9449 49.1968 21.9449 49.2052 21.9449ZM54.2354 21.9449H55.342C55.3504 21.9449 55.3546 21.9449 55.3546 21.9449C55.3546 21.9449 55.3546 21.9491 55.3546 21.9575V23.0641C55.3546 23.0725 55.3546 23.0767 55.3546 23.0767C55.3546 23.0767 55.3504 23.0767 55.342 23.0767H54.2354C54.227 23.0767 54.2228 23.0767 54.2228 23.0767C54.2228 23.0767 54.2228 23.0725 54.2228 23.0641V21.9575C54.2228 21.9491 54.2228 21.9449 54.2228 21.9449C54.2228 21.9449 54.227 21.9449 54.2354 21.9449ZM49.2052 23.2024H50.3119C50.3202 23.2024 50.3244 23.2024 50.3244 23.2024C50.3244 23.2024 50.3244 23.2066 50.3244 23.215V24.3217C50.3244 24.33 50.3244 24.3342 50.3244 24.3342C50.3244 24.3342 50.3202 24.3342 50.3119 24.3342H49.2052C49.1968 24.3342 49.1926 24.3342 49.1926 24.3342C49.1926 24.3342 49.1926 24.33 49.1926 24.3217V23.215C49.1926 23.2066 49.1926 23.2024 49.1926 23.2024C49.1926 23.2024 49.1968 23.2024 49.2052 23.2024ZM54.2354 23.2024H55.342C55.3504 23.2024 55.3546 23.2024 55.3546 23.2024C55.3546 23.2024 55.3546 23.2066 55.3546 23.215V24.3217C55.3546 24.33 55.3546 24.3342 55.3546 24.3342C55.3546 24.3342 55.3504 24.3342 55.342 24.3342H54.2354C54.227 24.3342 54.2228 24.3342 54.2228 24.3342C54.2228 24.3342 54.2228 24.33 54.2228 24.3217V23.215C54.2228 23.2066 54.2228 23.2024 54.2228 23.2024C54.2228 23.2024 54.227 23.2024 54.2354 23.2024ZM49.2052 24.46H50.3119C50.3202 24.46 50.3244 24.46 50.3244 24.46C50.3244 24.46 50.3244 24.4642 50.3244 24.4726V25.5792C50.3244 25.5876 50.3244 25.5918 50.3244 25.5918C50.3244 25.5918 50.3202 25.5918 50.3119 25.5918H49.2052C49.1968 25.5918 49.1926 25.5918 49.1926 25.5918C49.1926 25.5918 49.1926 25.5876 49.1926 25.5792V24.4726C49.1926 24.4642 49.1926 24.46 49.1926 24.46C49.1926 24.46 49.1968 24.46 49.2052 24.46ZM50.4628 24.46H51.5694C51.5778 24.46 51.582 24.46 51.582 24.46C51.582 24.46 51.582 24.4642 51.582 24.4726V25.5792C51.582 25.5876 51.582 25.5918 51.582 25.5918C51.582 25.5918 51.5778 25.5918 51.5694 25.5918H50.4628C50.4544 25.5918 50.4502 25.5918 50.4502 25.5918C50.4502 25.5918 50.4502 25.5876 50.4502 25.5792V24.4726C50.4502 24.4642 50.4502 24.46 50.4502 24.46C50.4502 24.46 50.4544 24.46 50.4628 24.46ZM51.7203 24.46H52.8269C52.8353 24.46 52.8395 24.46 52.8395 24.46C52.8395 24.46 52.8395 24.4642 52.8395 24.4726V25.5792C52.8395 25.5876 52.8395 25.5918 52.8395 25.5918C52.8395 25.5918 52.8353 25.5918 52.8269 25.5918H51.7203C51.7119 25.5918 51.7077 25.5918 51.7077 25.5918C51.7077 25.5918 51.7077 25.5876 51.7077 25.5792V24.4726C51.7077 24.4642 51.7077 24.46 51.7077 24.46C51.7077 24.46 51.7119 24.46 51.7203 24.46ZM52.9778 24.46H54.0845C54.0929 24.46 54.0971 24.46 54.0971 24.46C54.0971 24.46 54.0971 24.4642 54.0971 24.4726V25.5792C54.0971 25.5876 54.0971 25.5918 54.0971 25.5918C54.0971 25.5918 54.0929 25.5918 54.0845 25.5918H52.9778C52.9695 25.5918 52.9653 25.5918 52.9653 25.5918C52.9653 25.5918 52.9653 25.5876 52.9653 25.5792V24.4726C52.9653 24.4642 52.9653 24.46 52.9653 24.46C52.9653 24.46 52.9695 24.46 52.9778 24.46ZM49.2052 25.7175H50.3119C50.3202 25.7175 50.3244 25.7175 50.3244 25.7175C50.3244 25.7175 50.3244 25.7217 50.3244 25.7301V26.8367C50.3244 26.8451 50.3244 26.8493 50.3244 26.8493C50.3244 26.8493 50.3202 26.8493 50.3119 26.8493H49.2052C49.1968 26.8493 49.1926 26.8493 49.1926 26.8493C49.1926 26.8493 49.1926 26.8451 49.1926 26.8367V25.7301C49.1926 25.7217 49.1926 25.7175 49.1926 25.7175C49.1926 25.7175 49.1968 25.7175 49.2052 25.7175ZM51.7203 25.7175H52.8269C52.8353 25.7175 52.8395 25.7175 52.8395 25.7175C52.8395 25.7175 52.8395 25.7217 52.8395 25.7301V26.8367C52.8395 26.8451 52.8395 26.8493 52.8395 26.8493C52.8395 26.8493 52.8353 26.8493 52.8269 26.8493H51.7203C51.7119 26.8493 51.7077 26.8493 51.7077 26.8493C51.7077 26.8493 51.7077 26.8451 51.7077 26.8367V25.7301C51.7077 25.7217 51.7077 25.7175 51.7077 25.7175C51.7077 25.7175 51.7119 25.7175 51.7203 25.7175ZM49.2052 26.9751H50.3119C50.3202 26.9751 50.3244 26.9751 50.3244 26.9751C50.3244 26.9751 50.3244 26.9793 50.3244 26.9876V28.0943C50.3244 28.1027 50.3244 28.1069 50.3244 28.1069C50.3244 28.1069 50.3202 28.1069 50.3119 28.1069H49.2052C49.1968 28.1069 49.1926 28.1069 49.1926 28.1069C49.1926 28.1069 49.1926 28.1027 49.1926 28.0943V26.9876C49.1926 26.9793 49.1926 26.9751 49.1926 26.9751C49.1926 26.9751 49.1968 26.9751 49.2052 26.9751ZM52.9778 26.9751H54.0845C54.0929 26.9751 54.0971 26.9751 54.0971 26.9751C54.0971 26.9751 54.0971 26.9793 54.0971 26.9876V28.0943C54.0971 28.1027 54.0971 28.1069 54.0971 28.1069C54.0971 28.1069 54.0929 28.1069 54.0845 28.1069H52.9778C52.9695 28.1069 52.9653 28.1069 52.9653 28.1069C52.9653 28.1069 52.9653 28.1027 52.9653 28.0943V26.9876C52.9653 26.9793 52.9653 26.9751 52.9653 26.9751C52.9653 26.9751 52.9695 26.9751 52.9778 26.9751ZM49.2052 28.2326H50.3119C50.3202 28.2326 50.3244 28.2326 50.3244 28.2326C50.3244 28.2326 50.3244 28.2368 50.3244 28.2452V29.3518C50.3244 29.3602 50.3244 29.3644 50.3244 29.3644C50.3244 29.3644 50.3202 29.3644 50.3119 29.3644H49.2052C49.1968 29.3644 49.1926 29.3644 49.1926 29.3644C49.1926 29.3644 49.1926 29.3602 49.1926 29.3518V28.2452C49.1926 28.2368 49.1926 28.2326 49.1926 28.2326C49.1926 28.2326 49.1968 28.2326 49.2052 28.2326ZM54.2354 28.2326H55.342C55.3504 28.2326 55.3546 28.2326 55.3546 28.2326C55.3546 28.2326 55.3546 28.2368 55.3546 28.2452V29.3518C55.3546 29.3602 55.3546 29.3644 55.3546 29.3644C55.3546 29.3644 55.3504 29.3644 55.342 29.3644H54.2354C54.227 29.3644 54.2228 29.3644 54.2228 29.3644C54.2228 29.3644 54.2228 29.3602 54.2228 29.3518V28.2452C54.2228 28.2368 54.2228 28.2326 54.2228 28.2326C54.2228 28.2326 54.227 28.2326 54.2354 28.2326ZM60.1409 20.6874H61.2476C61.2559 20.6874 61.2601 20.6874 61.2601 20.6874C61.2601 20.6874 61.2601 20.6916 61.2601 20.6999V21.8066C61.2601 21.815 61.2601 21.8191 61.2601 21.8191C61.2601 21.8191 61.2559 21.8191 61.2476 21.8191H60.1409C60.1325 21.8191 60.1283 21.8191 60.1283 21.8191C60.1283 21.8191 60.1283 21.815 60.1283 21.8066V20.6999C60.1283 20.6916 60.1283 20.6874 60.1283 20.6874C60.1283 20.6874 60.1325 20.6874 60.1409 20.6874ZM58.8834 21.9449H59.99C59.9984 21.9449 60.0026 21.9449 60.0026 21.9449C60.0026 21.9449 60.0026 21.9491 60.0026 21.9575V23.0641C60.0026 23.0725 60.0026 23.0767 60.0026 23.0767C60.0026 23.0767 59.9984 23.0767 59.99 23.0767H58.8834C58.875 23.0767 58.8708 23.0767 58.8708 23.0767C58.8708 23.0767 58.8708 23.0725 58.8708 23.0641V21.9575C58.8708 21.9491 58.8708 21.9449 58.8708 21.9449C58.8708 21.9449 58.875 21.9449 58.8834 21.9449ZM61.3985 21.9449H62.5051C62.5135 21.9449 62.5177 21.9449 62.5177 21.9449C62.5177 21.9449 62.5177 21.9491 62.5177 21.9575V23.0641C62.5177 23.0725 62.5177 23.0767 62.5177 23.0767C62.5177 23.0767 62.5135 23.0767 62.5051 23.0767H61.3985C61.3901 23.0767 61.3859 23.0767 61.3859 23.0767C61.3859 23.0767 61.3859 23.0725 61.3859 23.0641V21.9575C61.3859 21.9491 61.3859 21.9449 61.3859 21.9449C61.3859 21.9449 61.3901 21.9449 61.3985 21.9449ZM57.6258 23.2024H58.7325C58.7409 23.2024 58.7451 23.2024 58.7451 23.2024C58.7451 23.2024 58.7451 23.2066 58.7451 23.215V24.3217C58.7451 24.33 58.7451 24.3342 58.7451 24.3342C58.7451 24.3342 58.7409 24.3342 58.7325 24.3342H57.6258C57.6175 24.3342 57.6133 24.3342 57.6133 24.3342C57.6133 24.3342 57.6133 24.33 57.6133 24.3217V23.215C57.6133 23.2066 57.6133 23.2024 57.6133 23.2024C57.6133 23.2024 57.6175 23.2024 57.6258 23.2024ZM62.656 23.2024H63.7626C63.771 23.2024 63.7752 23.2024 63.7752 23.2024C63.7752 23.2024 63.7752 23.2066 63.7752 23.215V24.3217C63.7752 24.33 63.7752 24.3342 63.7752 24.3342C63.7752 24.3342 63.771 24.3342 63.7626 24.3342H62.656C62.6476 24.3342 62.6434 24.3342 62.6434 24.3342C62.6434 24.3342 62.6434 24.33 62.6434 24.3217V23.215C62.6434 23.2066 62.6434 23.2024 62.6434 23.2024C62.6434 23.2024 62.6476 23.2024 62.656 23.2024ZM57.6258 24.46H58.7325C58.7409 24.46 58.7451 24.46 58.7451 24.46C58.7451 24.46 58.7451 24.4642 58.7451 24.4726V25.5792C58.7451 25.5876 58.7451 25.5918 58.7451 25.5918C58.7451 25.5918 58.7409 25.5918 58.7325 25.5918H57.6258C57.6175 25.5918 57.6133 25.5918 57.6133 25.5918C57.6133 25.5918 57.6133 25.5876 57.6133 25.5792V24.4726C57.6133 24.4642 57.6133 24.46 57.6133 24.46C57.6133 24.46 57.6175 24.46 57.6258 24.46ZM62.656 24.46H63.7626C63.771 24.46 63.7752 24.46 63.7752 24.46C63.7752 24.46 63.7752 24.4642 63.7752 24.4726V25.5792C63.7752 25.5876 63.7752 25.5918 63.7752 25.5918C63.7752 25.5918 63.771 25.5918 63.7626 25.5918H62.656C62.6476 25.5918 62.6434 25.5918 62.6434 25.5918C62.6434 25.5918 62.6434 25.5876 62.6434 25.5792V24.4726C62.6434 24.4642 62.6434 24.46 62.6434 24.46C62.6434 24.46 62.6476 24.46 62.656 24.46ZM57.6258 25.7175H58.7325C58.7409 25.7175 58.7451 25.7175 58.7451 25.7175C58.7451 25.7175 58.7451 25.7217 58.7451 25.7301V26.8367C58.7451 26.8451 58.7451 26.8493 58.7451 26.8493C58.7451 26.8493 58.7409 26.8493 58.7325 26.8493H57.6258C57.6175 26.8493 57.6133 26.8493 57.6133 26.8493C57.6133 26.8493 57.6133 26.8451 57.6133 26.8367V25.7301C57.6133 25.7217 57.6133 25.7175 57.6133 25.7175C57.6133 25.7175 57.6175 25.7175 57.6258 25.7175ZM58.8834 25.7175H59.99C59.9984 25.7175 60.0026 25.7175 60.0026 25.7175C60.0026 25.7175 60.0026 25.7217 60.0026 25.7301V26.8367C60.0026 26.8451 60.0026 26.8493 60.0026 26.8493C60.0026 26.8493 59.9984 26.8493 59.99 26.8493H58.8834C58.875 26.8493 58.8708 26.8493 58.8708 26.8493C58.8708 26.8493 58.8708 26.8451 58.8708 26.8367V25.7301C58.8708 25.7217 58.8708 25.7175 58.8708 25.7175C58.8708 25.7175 58.875 25.7175 58.8834 25.7175ZM60.1409 25.7175H61.2476C61.2559 25.7175 61.2601 25.7175 61.2601 25.7175C61.2601 25.7175 61.2601 25.7217 61.2601 25.7301V26.8367C61.2601 26.8451 61.2601 26.8493 61.2601 26.8493C61.2601 26.8493 61.2559 26.8493 61.2476 26.8493H60.1409C60.1325 26.8493 60.1283 26.8493 60.1283 26.8493C60.1283 26.8493 60.1283 26.8451 60.1283 26.8367V25.7301C60.1283 25.7217 60.1283 25.7175 60.1283 25.7175C60.1283 25.7175 60.1325 25.7175 60.1409 25.7175ZM61.3985 25.7175H62.5051C62.5135 25.7175 62.5177 25.7175 62.5177 25.7175C62.5177 25.7175 62.5177 25.7217 62.5177 25.7301V26.8367C62.5177 26.8451 62.5177 26.8493 62.5177 26.8493C62.5177 26.8493 62.5135 26.8493 62.5051 26.8493H61.3985C61.3901 26.8493 61.3859 26.8493 61.3859 26.8493C61.3859 26.8493 61.3859 26.8451 61.3859 26.8367V25.7301C61.3859 25.7217 61.3859 25.7175 61.3859 25.7175C61.3859 25.7175 61.3901 25.7175 61.3985 25.7175ZM62.656 25.7175H63.7626C63.771 25.7175 63.7752 25.7175 63.7752 25.7175C63.7752 25.7175 63.7752 25.7217 63.7752 25.7301V26.8367C63.7752 26.8451 63.7752 26.8493 63.7752 26.8493C63.7752 26.8493 63.771 26.8493 63.7626 26.8493H62.656C62.6476 26.8493 62.6434 26.8493 62.6434 26.8493C62.6434 26.8493 62.6434 26.8451 62.6434 26.8367V25.7301C62.6434 25.7217 62.6434 25.7175 62.6434 25.7175C62.6434 25.7175 62.6476 25.7175 62.656 25.7175ZM57.6258 26.9751H58.7325C58.7409 26.9751 58.7451 26.9751 58.7451 26.9751C58.7451 26.9751 58.7451 26.9793 58.7451 26.9876V28.0943C58.7451 28.1027 58.7451 28.1069 58.7451 28.1069C58.7451 28.1069 58.7409 28.1069 58.7325 28.1069H57.6258C57.6175 28.1069 57.6133 28.1069 57.6133 28.1069C57.6133 28.1069 57.6133 28.1027 57.6133 28.0943V26.9876C57.6133 26.9793 57.6133 26.9751 57.6133 26.9751C57.6133 26.9751 57.6175 26.9751 57.6258 26.9751ZM62.656 26.9751H63.7626C63.771 26.9751 63.7752 26.9751 63.7752 26.9751C63.7752 26.9751 63.7752 26.9793 63.7752 26.9876V28.0943C63.7752 28.1027 63.7752 28.1069 63.7752 28.1069C63.7752 28.1069 63.771 28.1069 63.7626 28.1069H62.656C62.6476 28.1069 62.6434 28.1069 62.6434 28.1069C62.6434 28.1069 62.6434 28.1027 62.6434 28.0943V26.9876C62.6434 26.9793 62.6434 26.9751 62.6434 26.9751C62.6434 26.9751 62.6476 26.9751 62.656 26.9751ZM57.6258 28.2326H58.7325C58.7409 28.2326 58.7451 28.2326 58.7451 28.2326C58.7451 28.2326 58.7451 28.2368 58.7451 28.2452V29.3518C58.7451 29.3602 58.7451 29.3644 58.7451 29.3644C58.7451 29.3644 58.7409 29.3644 58.7325 29.3644H57.6258C57.6175 29.3644 57.6133 29.3644 57.6133 29.3644C57.6133 29.3644 57.6133 29.3602 57.6133 29.3518V28.2452C57.6133 28.2368 57.6133 28.2326 57.6133 28.2326C57.6133 28.2326 57.6175 28.2326 57.6258 28.2326ZM62.656 28.2326H63.7626C63.771 28.2326 63.7752 28.2326 63.7752 28.2326C63.7752 28.2326 63.7752 28.2368 63.7752 28.2452V29.3518C63.7752 29.3602 63.7752 29.3644 63.7752 29.3644C63.7752 29.3644 63.771 29.3644 63.7626 29.3644H62.656C62.6476 29.3644 62.6434 29.3644 62.6434 29.3644C62.6434 29.3644 62.6434 29.3602 62.6434 29.3518V28.2452C62.6434 28.2368 62.6434 28.2326 62.6434 28.2326C62.6434 28.2326 62.6476 28.2326 62.656 28.2326ZM67.304 20.6874H68.4106C68.419 20.6874 68.4232 20.6874 68.4232 20.6874C68.4232 20.6874 68.4232 20.6916 68.4232 20.6999V21.8066C68.4232 21.815 68.4232 21.8191 68.4232 21.8191C68.4232 21.8191 68.419 21.8191 68.4106 21.8191H67.304C67.2956 21.8191 67.2914 21.8191 67.2914 21.8191C67.2914 21.8191 67.2914 21.815 67.2914 21.8066V20.6999C67.2914 20.6916 67.2914 20.6874 67.2914 20.6874C67.2914 20.6874 67.2956 20.6874 67.304 20.6874ZM68.5615 20.6874H69.6682C69.6766 20.6874 69.6808 20.6874 69.6808 20.6874C69.6808 20.6874 69.6808 20.6916 69.6808 20.6999V21.8066C69.6808 21.815 69.6808 21.8191 69.6808 21.8191C69.6808 21.8191 69.6766 21.8191 69.6682 21.8191H68.5615C68.5532 21.8191 68.549 21.8191 68.549 21.8191C68.549 21.8191 68.549 21.815 68.549 21.8066V20.6999C68.549 20.6916 68.549 20.6874 68.549 20.6874C68.549 20.6874 68.5532 20.6874 68.5615 20.6874ZM69.8191 20.6874H70.9257C70.9341 20.6874 70.9383 20.6874 70.9383 20.6874C70.9383 20.6874 70.9383 20.6916 70.9383 20.6999V21.8066C70.9383 21.815 70.9383 21.8191 70.9383 21.8191C70.9383 21.8191 70.9341 21.8191 70.9257 21.8191H69.8191C69.8107 21.8191 69.8065 21.8191 69.8065 21.8191C69.8065 21.8191 69.8065 21.815 69.8065 21.8066V20.6999C69.8065 20.6916 69.8065 20.6874 69.8065 20.6874C69.8065 20.6874 69.8107 20.6874 69.8191 20.6874ZM66.0465 21.9449H67.1531C67.1615 21.9449 67.1657 21.9449 67.1657 21.9449C67.1657 21.9449 67.1657 21.9491 67.1657 21.9575V23.0641C67.1657 23.0725 67.1657 23.0767 67.1657 23.0767C67.1657 23.0767 67.1615 23.0767 67.1531 23.0767H66.0465C66.0381 23.0767 66.0339 23.0767 66.0339 23.0767C66.0339 23.0767 66.0339 23.0725 66.0339 23.0641V21.9575C66.0339 21.9491 66.0339 21.9449 66.0339 21.9449C66.0339 21.9449 66.0381 21.9449 66.0465 21.9449ZM71.0766 21.9449H72.1833C72.1916 21.9449 72.1958 21.9449 72.1958 21.9449C72.1958 21.9449 72.1958 21.9491 72.1958 21.9575V23.0641C72.1958 23.0725 72.1958 23.0767 72.1958 23.0767C72.1958 23.0767 72.1916 23.0767 72.1833 23.0767H71.0766C71.0682 23.0767 71.064 23.0767 71.064 23.0767C71.064 23.0767 71.064 23.0725 71.064 23.0641V21.9575C71.064 21.9491 71.064 21.9449 71.064 21.9449C71.064 21.9449 71.0682 21.9449 71.0766 21.9449ZM66.0465 23.2024H67.1531C67.1615 23.2024 67.1657 23.2024 67.1657 23.2024C67.1657 23.2024 67.1657 23.2066 67.1657 23.215V24.3217C67.1657 24.33 67.1657 24.3342 67.1657 24.3342C67.1657 24.3342 67.1615 24.3342 67.1531 24.3342H66.0465C66.0381 24.3342 66.0339 24.3342 66.0339 24.3342C66.0339 24.3342 66.0339 24.33 66.0339 24.3217V23.215C66.0339 23.2066 66.0339 23.2024 66.0339 23.2024C66.0339 23.2024 66.0381 23.2024 66.0465 23.2024ZM66.0465 24.46H67.1531C67.1615 24.46 67.1657 24.46 67.1657 24.46C67.1657 24.46 67.1657 24.4642 67.1657 24.4726V25.5792C67.1657 25.5876 67.1657 25.5918 67.1657 25.5918C67.1657 25.5918 67.1615 25.5918 67.1531 25.5918H66.0465C66.0381 25.5918 66.0339 25.5918 66.0339 25.5918C66.0339 25.5918 66.0339 25.5876 66.0339 25.5792V24.4726C66.0339 24.4642 66.0339 24.46 66.0339 24.46C66.0339 24.46 66.0381 24.46 66.0465 24.46ZM66.0465 25.7175H67.1531C67.1615 25.7175 67.1657 25.7175 67.1657 25.7175C67.1657 25.7175 67.1657 25.7217 67.1657 25.7301V26.8367C67.1657 26.8451 67.1657 26.8493 67.1657 26.8493C67.1657 26.8493 67.1615 26.8493 67.1531 26.8493H66.0465C66.0381 26.8493 66.0339 26.8493 66.0339 26.8493C66.0339 26.8493 66.0339 26.8451 66.0339 26.8367V25.7301C66.0339 25.7217 66.0339 25.7175 66.0339 25.7175C66.0339 25.7175 66.0381 25.7175 66.0465 25.7175ZM66.0465 26.9751H67.1531C67.1615 26.9751 67.1657 26.9751 67.1657 26.9751C67.1657 26.9751 67.1657 26.9793 67.1657 26.9876V28.0943C67.1657 28.1027 67.1657 28.1069 67.1657 28.1069C67.1657 28.1069 67.1615 28.1069 67.1531 28.1069H66.0465C66.0381 28.1069 66.0339 28.1069 66.0339 28.1069C66.0339 28.1069 66.0339 28.1027 66.0339 28.0943V26.9876C66.0339 26.9793 66.0339 26.9751 66.0339 26.9751C66.0339 26.9751 66.0381 26.9751 66.0465 26.9751ZM71.0766 26.9751H72.1833C72.1916 26.9751 72.1958 26.9751 72.1958 26.9751C72.1958 26.9751 72.1958 26.9793 72.1958 26.9876V28.0943C72.1958 28.1027 72.1958 28.1069 72.1958 28.1069C72.1958 28.1069 72.1916 28.1069 72.1833 28.1069H71.0766C71.0682 28.1069 71.064 28.1069 71.064 28.1069C71.064 28.1069 71.064 28.1027 71.064 28.0943V26.9876C71.064 26.9793 71.064 26.9751 71.064 26.9751C71.064 26.9751 71.0682 26.9751 71.0766 26.9751ZM67.304 28.2326H68.4106C68.419 28.2326 68.4232 28.2326 68.4232 28.2326C68.4232 28.2326 68.4232 28.2368 68.4232 28.2452V29.3518C68.4232 29.3602 68.4232 29.3644 68.4232 29.3644C68.4232 29.3644 68.419 29.3644 68.4106 29.3644H67.304C67.2956 29.3644 67.2914 29.3644 67.2914 29.3644C67.2914 29.3644 67.2914 29.3602 67.2914 29.3518V28.2452C67.2914 28.2368 67.2914 28.2326 67.2914 28.2326C67.2914 28.2326 67.2956 28.2326 67.304 28.2326ZM68.5615 28.2326H69.6682C69.6766 28.2326 69.6808 28.2326 69.6808 28.2326C69.6808 28.2326 69.6808 28.2368 69.6808 28.2452V29.3518C69.6808 29.3602 69.6808 29.3644 69.6808 29.3644C69.6808 29.3644 69.6766 29.3644 69.6682 29.3644H68.5615C68.5532 29.3644 68.549 29.3644 68.549 29.3644C68.549 29.3644 68.549 29.3602 68.549 29.3518V28.2452C68.549 28.2368 68.549 28.2326 68.549 28.2326C68.549 28.2326 68.5532 28.2326 68.5615 28.2326ZM69.8191 28.2326H70.9257C70.9341 28.2326 70.9383 28.2326 70.9383 28.2326C70.9383 28.2326 70.9383 28.2368 70.9383 28.2452V29.3518C70.9383 29.3602 70.9383 29.3644 70.9383 29.3644C70.9383 29.3644 70.9341 29.3644 70.9257 29.3644H69.8191C69.8107 29.3644 69.8065 29.3644 69.8065 29.3644C69.8065 29.3644 69.8065 29.3602 69.8065 29.3518V28.2452C69.8065 28.2368 69.8065 28.2326 69.8065 28.2326C69.8065 28.2326 69.8107 28.2326 69.8191 28.2326ZM74.4671 20.6874H75.5737C75.5821 20.6874 75.5863 20.6874 75.5863 20.6874C75.5863 20.6874 75.5863 20.6916 75.5863 20.6999V21.8066C75.5863 21.815 75.5863 21.8191 75.5863 21.8191C75.5863 21.8191 75.5821 21.8191 75.5737 21.8191H74.4671C74.4587 21.8191 74.4545 21.8191 74.4545 21.8191C74.4545 21.8191 74.4545 21.815 74.4545 21.8066V20.6999C74.4545 20.6916 74.4545 20.6874 74.4545 20.6874C74.4545 20.6874 74.4587 20.6874 74.4671 20.6874ZM79.4972 20.6874H80.6039C80.6123 20.6874 80.6165 20.6874 80.6165 20.6874C80.6165 20.6874 80.6165 20.6916 80.6165 20.6999V21.8066C80.6165 21.815 80.6165 21.8191 80.6165 21.8191C80.6165 21.8191 80.6123 21.8191 80.6039 21.8191H79.4972C79.4889 21.8191 79.4847 21.8191 79.4847 21.8191C79.4847 21.8191 79.4847 21.815 79.4847 21.8066V20.6999C79.4847 20.6916 79.4847 20.6874 79.4847 20.6874C79.4847 20.6874 79.4889 20.6874 79.4972 20.6874ZM74.4671 21.9449H75.5737C75.5821 21.9449 75.5863 21.9449 75.5863 21.9449C75.5863 21.9449 75.5863 21.9491 75.5863 21.9575V23.0641C75.5863 23.0725 75.5863 23.0767 75.5863 23.0767C75.5863 23.0767 75.5821 23.0767 75.5737 23.0767H74.4671C74.4587 23.0767 74.4545 23.0767 74.4545 23.0767C74.4545 23.0767 74.4545 23.0725 74.4545 23.0641V21.9575C74.4545 21.9491 74.4545 21.9449 74.4545 21.9449C74.4545 21.9449 74.4587 21.9449 74.4671 21.9449ZM78.2397 21.9449H79.3463C79.3547 21.9449 79.3589 21.9449 79.3589 21.9449C79.3589 21.9449 79.3589 21.9491 79.3589 21.9575V23.0641C79.3589 23.0725 79.3589 23.0767 79.3589 23.0767C79.3589 23.0767 79.3547 23.0767 79.3463 23.0767H78.2397C78.2313 23.0767 78.2271 23.0767 78.2271 23.0767C78.2271 23.0767 78.2271 23.0725 78.2271 23.0641V21.9575C78.2271 21.9491 78.2271 21.9449 78.2271 21.9449C78.2271 21.9449 78.2313 21.9449 78.2397 21.9449ZM74.4671 23.2024H75.5737C75.5821 23.2024 75.5863 23.2024 75.5863 23.2024C75.5863 23.2024 75.5863 23.2066 75.5863 23.215V24.3217C75.5863 24.33 75.5863 24.3342 75.5863 24.3342C75.5863 24.3342 75.5821 24.3342 75.5737 24.3342H74.4671C74.4587 24.3342 74.4545 24.3342 74.4545 24.3342C74.4545 24.3342 74.4545 24.33 74.4545 24.3217V23.215C74.4545 23.2066 74.4545 23.2024 74.4545 23.2024C74.4545 23.2024 74.4587 23.2024 74.4671 23.2024ZM76.9822 23.2024H78.0888C78.0972 23.2024 78.1014 23.2024 78.1014 23.2024C78.1014 23.2024 78.1014 23.2066 78.1014 23.215V24.3217C78.1014 24.33 78.1014 24.3342 78.1014 24.3342C78.1014 24.3342 78.0972 24.3342 78.0888 24.3342H76.9822C76.9738 24.3342 76.9696 24.3342 76.9696 24.3342C76.9696 24.3342 76.9696 24.33 76.9696 24.3217V23.215C76.9696 23.2066 76.9696 23.2024 76.9696 23.2024C76.9696 23.2024 76.9738 23.2024 76.9822 23.2024ZM74.4671 24.46H75.5737C75.5821 24.46 75.5863 24.46 75.5863 24.46C75.5863 24.46 75.5863 24.4642 75.5863 24.4726V25.5792C75.5863 25.5876 75.5863 25.5918 75.5863 25.5918C75.5863 25.5918 75.5821 25.5918 75.5737 25.5918H74.4671C74.4587 25.5918 74.4545 25.5918 74.4545 25.5918C74.4545 25.5918 74.4545 25.5876 74.4545 25.5792V24.4726C74.4545 24.4642 74.4545 24.46 74.4545 24.46C74.4545 24.46 74.4587 24.46 74.4671 24.46ZM75.7246 24.46H76.8313C76.8396 24.46 76.8438 24.46 76.8438 24.46C76.8438 24.46 76.8438 24.4642 76.8438 24.4726V25.5792C76.8438 25.5876 76.8438 25.5918 76.8438 25.5918C76.8438 25.5918 76.8396 25.5918 76.8313 25.5918H75.7246C75.7162 25.5918 75.712 25.5918 75.712 25.5918C75.712 25.5918 75.712 25.5876 75.712 25.5792V24.4726C75.712 24.4642 75.712 24.46 75.712 24.46C75.712 24.46 75.7162 24.46 75.7246 24.46ZM74.4671 25.7175H75.5737C75.5821 25.7175 75.5863 25.7175 75.5863 25.7175C75.5863 25.7175 75.5863 25.7217 75.5863 25.7301V26.8367C75.5863 26.8451 75.5863 26.8493 75.5863 26.8493C75.5863 26.8493 75.5821 26.8493 75.5737 26.8493H74.4671C74.4587 26.8493 74.4545 26.8493 74.4545 26.8493C74.4545 26.8493 74.4545 26.8451 74.4545 26.8367V25.7301C74.4545 25.7217 74.4545 25.7175 74.4545 25.7175C74.4545 25.7175 74.4587 25.7175 74.4671 25.7175ZM76.9822 25.7175H78.0888C78.0972 25.7175 78.1014 25.7175 78.1014 25.7175C78.1014 25.7175 78.1014 25.7217 78.1014 25.7301V26.8367C78.1014 26.8451 78.1014 26.8493 78.1014 26.8493C78.1014 26.8493 78.0972 26.8493 78.0888 26.8493H76.9822C76.9738 26.8493 76.9696 26.8493 76.9696 26.8493C76.9696 26.8493 76.9696 26.8451 76.9696 26.8367V25.7301C76.9696 25.7217 76.9696 25.7175 76.9696 25.7175C76.9696 25.7175 76.9738 25.7175 76.9822 25.7175ZM74.4671 26.9751H75.5737C75.5821 26.9751 75.5863 26.9751 75.5863 26.9751C75.5863 26.9751 75.5863 26.9793 75.5863 26.9876V28.0943C75.5863 28.1027 75.5863 28.1069 75.5863 28.1069C75.5863 28.1069 75.5821 28.1069 75.5737 28.1069H74.4671C74.4587 28.1069 74.4545 28.1069 74.4545 28.1069C74.4545 28.1069 74.4545 28.1027 74.4545 28.0943V26.9876C74.4545 26.9793 74.4545 26.9751 74.4545 26.9751C74.4545 26.9751 74.4587 26.9751 74.4671 26.9751ZM78.2397 26.9751H79.3463C79.3547 26.9751 79.3589 26.9751 79.3589 26.9751C79.3589 26.9751 79.3589 26.9793 79.3589 26.9876V28.0943C79.3589 28.1027 79.3589 28.1069 79.3589 28.1069C79.3589 28.1069 79.3547 28.1069 79.3463 28.1069H78.2397C78.2313 28.1069 78.2271 28.1069 78.2271 28.1069C78.2271 28.1069 78.2271 28.1027 78.2271 28.0943V26.9876C78.2271 26.9793 78.2271 26.9751 78.2271 26.9751C78.2271 26.9751 78.2313 26.9751 78.2397 26.9751ZM74.4671 28.2326H75.5737C75.5821 28.2326 75.5863 28.2326 75.5863 28.2326C75.5863 28.2326 75.5863 28.2368 75.5863 28.2452V29.3518C75.5863 29.3602 75.5863 29.3644 75.5863 29.3644C75.5863 29.3644 75.5821 29.3644 75.5737 29.3644H74.4671C74.4587 29.3644 74.4545 29.3644 74.4545 29.3644C74.4545 29.3644 74.4545 29.3602 74.4545 29.3518V28.2452C74.4545 28.2368 74.4545 28.2326 74.4545 28.2326C74.4545 28.2326 74.4587 28.2326 74.4671 28.2326ZM79.4972 28.2326H80.6039C80.6123 28.2326 80.6165 28.2326 80.6165 28.2326C80.6165 28.2326 80.6165 28.2368 80.6165 28.2452V29.3518C80.6165 29.3602 80.6165 29.3644 80.6165 29.3644C80.6165 29.3644 80.6123 29.3644 80.6039 29.3644H79.4972C79.4889 29.3644 79.4847 29.3644 79.4847 29.3644C79.4847 29.3644 79.4847 29.3602 79.4847 29.3518V28.2452C79.4847 28.2368 79.4847 28.2326 79.4847 28.2326C79.4847 28.2326 79.4889 28.2326 79.4972 28.2326ZM82.8877 20.6874H83.9943C84.0027 20.6874 84.0069 20.6874 84.0069 20.6874C84.0069 20.6874 84.0069 20.6916 84.0069 20.6999V21.8066C84.0069 21.815 84.0069 21.8191 84.0069 21.8191C84.0069 21.8191 84.0027 21.8191 83.9943 21.8191H82.8877C82.8793 21.8191 82.8751 21.8191 82.8751 21.8191C82.8751 21.8191 82.8751 21.815 82.8751 21.8066V20.6999C82.8751 20.6916 82.8751 20.6874 82.8751 20.6874C82.8751 20.6874 82.8793 20.6874 82.8877 20.6874ZM84.1452 20.6874H85.2519C85.2603 20.6874 85.2644 20.6874 85.2644 20.6874C85.2644 20.6874 85.2644 20.6916 85.2644 20.6999V21.8066C85.2644 21.815 85.2644 21.8191 85.2644 21.8191C85.2644 21.8191 85.2603 21.8191 85.2519 21.8191H84.1452C84.1368 21.8191 84.1327 21.8191 84.1327 21.8191C84.1327 21.8191 84.1327 21.815 84.1327 21.8066V20.6999C84.1327 20.6916 84.1327 20.6874 84.1327 20.6874C84.1327 20.6874 84.1368 20.6874 84.1452 20.6874ZM85.4028 20.6874H86.5094C86.5178 20.6874 86.522 20.6874 86.522 20.6874C86.522 20.6874 86.522 20.6916 86.522 20.6999V21.8066C86.522 21.815 86.522 21.8191 86.522 21.8191C86.522 21.8191 86.5178 21.8191 86.5094 21.8191H85.4028C85.3944 21.8191 85.3902 21.8191 85.3902 21.8191C85.3902 21.8191 85.3902 21.815 85.3902 21.8066V20.6999C85.3902 20.6916 85.3902 20.6874 85.3902 20.6874C85.3902 20.6874 85.3944 20.6874 85.4028 20.6874ZM86.6603 20.6874H87.767C87.7753 20.6874 87.7795 20.6874 87.7795 20.6874C87.7795 20.6874 87.7795 20.6916 87.7795 20.6999V21.8066C87.7795 21.815 87.7795 21.8191 87.7795 21.8191C87.7795 21.8191 87.7753 21.8191 87.767 21.8191H86.6603C86.6519 21.8191 86.6477 21.8191 86.6477 21.8191C86.6477 21.8191 86.6477 21.815 86.6477 21.8066V20.6999C86.6477 20.6916 86.6477 20.6874 86.6477 20.6874C86.6477 20.6874 86.6519 20.6874 86.6603 20.6874ZM87.9179 20.6874H89.0245C89.0329 20.6874 89.0371 20.6874 89.0371 20.6874C89.0371 20.6874 89.0371 20.6916 89.0371 20.6999V21.8066C89.0371 21.815 89.0371 21.8191 89.0371 21.8191C89.0371 21.8191 89.0329 21.8191 89.0245 21.8191H87.9179C87.9095 21.8191 87.9053 21.8191 87.9053 21.8191C87.9053 21.8191 87.9053 21.815 87.9053 21.8066V20.6999C87.9053 20.6916 87.9053 20.6874 87.9053 20.6874C87.9053 20.6874 87.9095 20.6874 87.9179 20.6874ZM82.8877 21.9449H83.9943C84.0027 21.9449 84.0069 21.9449 84.0069 21.9449C84.0069 21.9449 84.0069 21.9491 84.0069 21.9575V23.0641C84.0069 23.0725 84.0069 23.0767 84.0069 23.0767C84.0069 23.0767 84.0027 23.0767 83.9943 23.0767H82.8877C82.8793 23.0767 82.8751 23.0767 82.8751 23.0767C82.8751 23.0767 82.8751 23.0725 82.8751 23.0641V21.9575C82.8751 21.9491 82.8751 21.9449 82.8751 21.9449C82.8751 21.9449 82.8793 21.9449 82.8877 21.9449ZM82.8877 23.2024H83.9943C84.0027 23.2024 84.0069 23.2024 84.0069 23.2024C84.0069 23.2024 84.0069 23.2066 84.0069 23.215V24.3217C84.0069 24.33 84.0069 24.3342 84.0069 24.3342C84.0069 24.3342 84.0027 24.3342 83.9943 24.3342H82.8877C82.8793 24.3342 82.8751 24.3342 82.8751 24.3342C82.8751 24.3342 82.8751 24.33 82.8751 24.3217V23.215C82.8751 23.2066 82.8751 23.2024 82.8751 23.2024C82.8751 23.2024 82.8793 23.2024 82.8877 23.2024ZM82.8877 24.46H83.9943C84.0027 24.46 84.0069 24.46 84.0069 24.46C84.0069 24.46 84.0069 24.4642 84.0069 24.4726V25.5792C84.0069 25.5876 84.0069 25.5918 84.0069 25.5918C84.0069 25.5918 84.0027 25.5918 83.9943 25.5918H82.8877C82.8793 25.5918 82.8751 25.5918 82.8751 25.5918C82.8751 25.5918 82.8751 25.5876 82.8751 25.5792V24.4726C82.8751 24.4642 82.8751 24.46 82.8751 24.46C82.8751 24.46 82.8793 24.46 82.8877 24.46ZM84.1452 24.46H85.2519C85.2603 24.46 85.2644 24.46 85.2644 24.46C85.2644 24.46 85.2644 24.4642 85.2644 24.4726V25.5792C85.2644 25.5876 85.2644 25.5918 85.2644 25.5918C85.2644 25.5918 85.2603 25.5918 85.2519 25.5918H84.1452C84.1368 25.5918 84.1327 25.5918 84.1327 25.5918C84.1327 25.5918 84.1327 25.5876 84.1327 25.5792V24.4726C84.1327 24.4642 84.1327 24.46 84.1327 24.46C84.1327 24.46 84.1368 24.46 84.1452 24.46ZM85.4028 24.46H86.5094C86.5178 24.46 86.522 24.46 86.522 24.46C86.522 24.46 86.522 24.4642 86.522 24.4726V25.5792C86.522 25.5876 86.522 25.5918 86.522 25.5918C86.522 25.5918 86.5178 25.5918 86.5094 25.5918H85.4028C85.3944 25.5918 85.3902 25.5918 85.3902 25.5918C85.3902 25.5918 85.3902 25.5876 85.3902 25.5792V24.4726C85.3902 24.4642 85.3902 24.46 85.3902 24.46C85.3902 24.46 85.3944 24.46 85.4028 24.46ZM86.6603 24.46H87.767C87.7753 24.46 87.7795 24.46 87.7795 24.46C87.7795 24.46 87.7795 24.4642 87.7795 24.4726V25.5792C87.7795 25.5876 87.7795 25.5918 87.7795 25.5918C87.7795 25.5918 87.7753 25.5918 87.767 25.5918H86.6603C86.6519 25.5918 86.6477 25.5918 86.6477 25.5918C86.6477 25.5918 86.6477 25.5876 86.6477 25.5792V24.4726C86.6477 24.4642 86.6477 24.46 86.6477 24.46C86.6477 24.46 86.6519 24.46 86.6603 24.46ZM82.8877 25.7175H83.9943C84.0027 25.7175 84.0069 25.7175 84.0069 25.7175C84.0069 25.7175 84.0069 25.7217 84.0069 25.7301V26.8367C84.0069 26.8451 84.0069 26.8493 84.0069 26.8493C84.0069 26.8493 84.0027 26.8493 83.9943 26.8493H82.8877C82.8793 26.8493 82.8751 26.8493 82.8751 26.8493C82.8751 26.8493 82.8751 26.8451 82.8751 26.8367V25.7301C82.8751 25.7217 82.8751 25.7175 82.8751 25.7175C82.8751 25.7175 82.8793 25.7175 82.8877 25.7175ZM82.8877 26.9751H83.9943C84.0027 26.9751 84.0069 26.9751 84.0069 26.9751C84.0069 26.9751 84.0069 26.9793 84.0069 26.9876V28.0943C84.0069 28.1027 84.0069 28.1069 84.0069 28.1069C84.0069 28.1069 84.0027 28.1069 83.9943 28.1069H82.8877C82.8793 28.1069 82.8751 28.1069 82.8751 28.1069C82.8751 28.1069 82.8751 28.1027 82.8751 28.0943V26.9876C82.8751 26.9793 82.8751 26.9751 82.8751 26.9751C82.8751 26.9751 82.8793 26.9751 82.8877 26.9751ZM82.8877 28.2326H83.9943C84.0027 28.2326 84.0069 28.2326 84.0069 28.2326C84.0069 28.2326 84.0069 28.2368 84.0069 28.2452V29.3518C84.0069 29.3602 84.0069 29.3644 84.0069 29.3644C84.0069 29.3644 84.0027 29.3644 83.9943 29.3644H82.8877C82.8793 29.3644 82.8751 29.3644 82.8751 29.3644C82.8751 29.3644 82.8751 29.3602 82.8751 29.3518V28.2452C82.8751 28.2368 82.8751 28.2326 82.8751 28.2326C82.8751 28.2326 82.8793 28.2326 82.8877 28.2326ZM84.1452 28.2326H85.2519C85.2603 28.2326 85.2644 28.2326 85.2644 28.2326C85.2644 28.2326 85.2644 28.2368 85.2644 28.2452V29.3518C85.2644 29.3602 85.2644 29.3644 85.2644 29.3644C85.2644 29.3644 85.2603 29.3644 85.2519 29.3644H84.1452C84.1368 29.3644 84.1327 29.3644 84.1327 29.3644C84.1327 29.3644 84.1327 29.3602 84.1327 29.3518V28.2452C84.1327 28.2368 84.1327 28.2326 84.1327 28.2326C84.1327 28.2326 84.1368 28.2326 84.1452 28.2326ZM85.4028 28.2326H86.5094C86.5178 28.2326 86.522 28.2326 86.522 28.2326C86.522 28.2326 86.522 28.2368 86.522 28.2452V29.3518C86.522 29.3602 86.522 29.3644 86.522 29.3644C86.522 29.3644 86.5178 29.3644 86.5094 29.3644H85.4028C85.3944 29.3644 85.3902 29.3644 85.3902 29.3644C85.3902 29.3644 85.3902 29.3602 85.3902 29.3518V28.2452C85.3902 28.2368 85.3902 28.2326 85.3902 28.2326C85.3902 28.2326 85.3944 28.2326 85.4028 28.2326ZM86.6603 28.2326H87.767C87.7753 28.2326 87.7795 28.2326 87.7795 28.2326C87.7795 28.2326 87.7795 28.2368 87.7795 28.2452V29.3518C87.7795 29.3602 87.7795 29.3644 87.7795 29.3644C87.7795 29.3644 87.7753 29.3644 87.767 29.3644H86.6603C86.6519 29.3644 86.6477 29.3644 86.6477 29.3644C86.6477 29.3644 86.6477 29.3602 86.6477 29.3518V28.2452C86.6477 28.2368 86.6477 28.2326 86.6477 28.2326C86.6477 28.2326 86.6519 28.2326 86.6603 28.2326ZM87.9179 28.2326H89.0245C89.0329 28.2326 89.0371 28.2326 89.0371 28.2326C89.0371 28.2326 89.0371 28.2368 89.0371 28.2452V29.3518C89.0371 29.3602 89.0371 29.3644 89.0371 29.3644C89.0371 29.3644 89.0329 29.3644 89.0245 29.3644H87.9179C87.9095 29.3644 87.9053 29.3644 87.9053 29.3644C87.9053 29.3644 87.9053 29.3602 87.9053 29.3518V28.2452C87.9053 28.2368 87.9053 28.2326 87.9053 28.2326C87.9053 28.2326 87.9095 28.2326 87.9179 28.2326ZM91.3083 20.6874H92.4149C92.4233 20.6874 92.4275 20.6874 92.4275 20.6874C92.4275 20.6874 92.4275 20.6916 92.4275 20.6999V21.8066C92.4275 21.815 92.4275 21.8191 92.4275 21.8191C92.4275 21.8191 92.4233 21.8191 92.4149 21.8191H91.3083C91.2999 21.8191 91.2957 21.8191 91.2957 21.8191C91.2957 21.8191 91.2957 21.815 91.2957 21.8066V20.6999C91.2957 20.6916 91.2957 20.6874 91.2957 20.6874C91.2957 20.6874 91.2999 20.6874 91.3083 20.6874ZM92.5659 20.6874H93.6725C93.6809 20.6874 93.6851 20.6874 93.6851 20.6874C93.6851 20.6874 93.6851 20.6916 93.6851 20.6999V21.8066C93.6851 21.815 93.6851 21.8191 93.6851 21.8191C93.6851 21.8191 93.6809 21.8191 93.6725 21.8191H92.5659C92.5575 21.8191 92.5533 21.8191 92.5533 21.8191C92.5533 21.8191 92.5533 21.815 92.5533 21.8066V20.6999C92.5533 20.6916 92.5533 20.6874 92.5533 20.6874C92.5533 20.6874 92.5575 20.6874 92.5659 20.6874ZM93.8234 20.6874H94.93C94.9384 20.6874 94.9426 20.6874 94.9426 20.6874C94.9426 20.6874 94.9426 20.6916 94.9426 20.6999V21.8066C94.9426 21.815 94.9426 21.8191 94.9426 21.8191C94.9426 21.8191 94.9384 21.8191 94.93 21.8191H93.8234C93.815 21.8191 93.8108 21.8191 93.8108 21.8191C93.8108 21.8191 93.8108 21.815 93.8108 21.8066V20.6999C93.8108 20.6916 93.8108 20.6874 93.8108 20.6874C93.8108 20.6874 93.815 20.6874 93.8234 20.6874ZM95.0809 20.6874H96.1876C96.196 20.6874 96.2001 20.6874 96.2001 20.6874C96.2001 20.6874 96.2001 20.6916 96.2001 20.6999V21.8066C96.2001 21.815 96.2001 21.8191 96.2001 21.8191C96.2001 21.8191 96.196 21.8191 96.1876 21.8191H95.0809C95.0726 21.8191 95.0684 21.8191 95.0684 21.8191C95.0684 21.8191 95.0684 21.815 95.0684 21.8066V20.6999C95.0684 20.6916 95.0684 20.6874 95.0684 20.6874C95.0684 20.6874 95.0726 20.6874 95.0809 20.6874ZM91.3083 21.9449H92.4149C92.4233 21.9449 92.4275 21.9449 92.4275 21.9449C92.4275 21.9449 92.4275 21.9491 92.4275 21.9575V23.0641C92.4275 23.0725 92.4275 23.0767 92.4275 23.0767C92.4275 23.0767 92.4233 23.0767 92.4149 23.0767H91.3083C91.2999 23.0767 91.2957 23.0767 91.2957 23.0767C91.2957 23.0767 91.2957 23.0725 91.2957 23.0641V21.9575C91.2957 21.9491 91.2957 21.9449 91.2957 21.9449C91.2957 21.9449 91.2999 21.9449 91.3083 21.9449ZM96.3385 21.9449H97.4451C97.4535 21.9449 97.4577 21.9449 97.4577 21.9449C97.4577 21.9449 97.4577 21.9491 97.4577 21.9575V23.0641C97.4577 23.0725 97.4577 23.0767 97.4577 23.0767C97.4577 23.0767 97.4535 23.0767 97.4451 23.0767H96.3385C96.3301 23.0767 96.3259 23.0767 96.3259 23.0767C96.3259 23.0767 96.3259 23.0725 96.3259 23.0641V21.9575C96.3259 21.9491 96.3259 21.9449 96.3259 21.9449C96.3259 21.9449 96.3301 21.9449 96.3385 21.9449ZM91.3083 23.2024H92.4149C92.4233 23.2024 92.4275 23.2024 92.4275 23.2024C92.4275 23.2024 92.4275 23.2066 92.4275 23.215V24.3217C92.4275 24.33 92.4275 24.3342 92.4275 24.3342C92.4275 24.3342 92.4233 24.3342 92.4149 24.3342H91.3083C91.2999 24.3342 91.2957 24.3342 91.2957 24.3342C91.2957 24.3342 91.2957 24.33 91.2957 24.3217V23.215C91.2957 23.2066 91.2957 23.2024 91.2957 23.2024C91.2957 23.2024 91.2999 23.2024 91.3083 23.2024ZM96.3385 23.2024H97.4451C97.4535 23.2024 97.4577 23.2024 97.4577 23.2024C97.4577 23.2024 97.4577 23.2066 97.4577 23.215V24.3217C97.4577 24.33 97.4577 24.3342 97.4577 24.3342C97.4577 24.3342 97.4535 24.3342 97.4451 24.3342H96.3385C96.3301 24.3342 96.3259 24.3342 96.3259 24.3342C96.3259 24.3342 96.3259 24.33 96.3259 24.3217V23.215C96.3259 23.2066 96.3259 23.2024 96.3259 23.2024C96.3259 23.2024 96.3301 23.2024 96.3385 23.2024ZM91.3083 24.46H92.4149C92.4233 24.46 92.4275 24.46 92.4275 24.46C92.4275 24.46 92.4275 24.4642 92.4275 24.4726V25.5792C92.4275 25.5876 92.4275 25.5918 92.4275 25.5918C92.4275 25.5918 92.4233 25.5918 92.4149 25.5918H91.3083C91.2999 25.5918 91.2957 25.5918 91.2957 25.5918C91.2957 25.5918 91.2957 25.5876 91.2957 25.5792V24.4726C91.2957 24.4642 91.2957 24.46 91.2957 24.46C91.2957 24.46 91.2999 24.46 91.3083 24.46ZM92.5659 24.46H93.6725C93.6809 24.46 93.6851 24.46 93.6851 24.46C93.6851 24.46 93.6851 24.4642 93.6851 24.4726V25.5792C93.6851 25.5876 93.6851 25.5918 93.6851 25.5918C93.6851 25.5918 93.6809 25.5918 93.6725 25.5918H92.5659C92.5575 25.5918 92.5533 25.5918 92.5533 25.5918C92.5533 25.5918 92.5533 25.5876 92.5533 25.5792V24.4726C92.5533 24.4642 92.5533 24.46 92.5533 24.46C92.5533 24.46 92.5575 24.46 92.5659 24.46ZM93.8234 24.46H94.93C94.9384 24.46 94.9426 24.46 94.9426 24.46C94.9426 24.46 94.9426 24.4642 94.9426 24.4726V25.5792C94.9426 25.5876 94.9426 25.5918 94.9426 25.5918C94.9426 25.5918 94.9384 25.5918 94.93 25.5918H93.8234C93.815 25.5918 93.8108 25.5918 93.8108 25.5918C93.8108 25.5918 93.8108 25.5876 93.8108 25.5792V24.4726C93.8108 24.4642 93.8108 24.46 93.8108 24.46C93.8108 24.46 93.815 24.46 93.8234 24.46ZM95.0809 24.46H96.1876C96.196 24.46 96.2001 24.46 96.2001 24.46C96.2001 24.46 96.2001 24.4642 96.2001 24.4726V25.5792C96.2001 25.5876 96.2001 25.5918 96.2001 25.5918C96.2001 25.5918 96.196 25.5918 96.1876 25.5918H95.0809C95.0726 25.5918 95.0684 25.5918 95.0684 25.5918C95.0684 25.5918 95.0684 25.5876 95.0684 25.5792V24.4726C95.0684 24.4642 95.0684 24.46 95.0684 24.46C95.0684 24.46 95.0726 24.46 95.0809 24.46ZM91.3083 25.7175H92.4149C92.4233 25.7175 92.4275 25.7175 92.4275 25.7175C92.4275 25.7175 92.4275 25.7217 92.4275 25.7301V26.8367C92.4275 26.8451 92.4275 26.8493 92.4275 26.8493C92.4275 26.8493 92.4233 26.8493 92.4149 26.8493H91.3083C91.2999 26.8493 91.2957 26.8493 91.2957 26.8493C91.2957 26.8493 91.2957 26.8451 91.2957 26.8367V25.7301C91.2957 25.7217 91.2957 25.7175 91.2957 25.7175C91.2957 25.7175 91.2999 25.7175 91.3083 25.7175ZM93.8234 25.7175H94.93C94.9384 25.7175 94.9426 25.7175 94.9426 25.7175C94.9426 25.7175 94.9426 25.7217 94.9426 25.7301V26.8367C94.9426 26.8451 94.9426 26.8493 94.9426 26.8493C94.9426 26.8493 94.9384 26.8493 94.93 26.8493H93.8234C93.815 26.8493 93.8108 26.8493 93.8108 26.8493C93.8108 26.8493 93.8108 26.8451 93.8108 26.8367V25.7301C93.8108 25.7217 93.8108 25.7175 93.8108 25.7175C93.8108 25.7175 93.815 25.7175 93.8234 25.7175ZM91.3083 26.9751H92.4149C92.4233 26.9751 92.4275 26.9751 92.4275 26.9751C92.4275 26.9751 92.4275 26.9793 92.4275 26.9876V28.0943C92.4275 28.1027 92.4275 28.1069 92.4275 28.1069C92.4275 28.1069 92.4233 28.1069 92.4149 28.1069H91.3083C91.2999 28.1069 91.2957 28.1069 91.2957 28.1069C91.2957 28.1069 91.2957 28.1027 91.2957 28.0943V26.9876C91.2957 26.9793 91.2957 26.9751 91.2957 26.9751C91.2957 26.9751 91.2999 26.9751 91.3083 26.9751ZM95.0809 26.9751H96.1876C96.196 26.9751 96.2001 26.9751 96.2001 26.9751C96.2001 26.9751 96.2001 26.9793 96.2001 26.9876V28.0943C96.2001 28.1027 96.2001 28.1069 96.2001 28.1069C96.2001 28.1069 96.196 28.1069 96.1876 28.1069H95.0809C95.0726 28.1069 95.0684 28.1069 95.0684 28.1069C95.0684 28.1069 95.0684 28.1027 95.0684 28.0943V26.9876C95.0684 26.9793 95.0684 26.9751 95.0684 26.9751C95.0684 26.9751 95.0726 26.9751 95.0809 26.9751ZM91.3083 28.2326H92.4149C92.4233 28.2326 92.4275 28.2326 92.4275 28.2326C92.4275 28.2326 92.4275 28.2368 92.4275 28.2452V29.3518C92.4275 29.3602 92.4275 29.3644 92.4275 29.3644C92.4275 29.3644 92.4233 29.3644 92.4149 29.3644H91.3083C91.2999 29.3644 91.2957 29.3644 91.2957 29.3644C91.2957 29.3644 91.2957 29.3602 91.2957 29.3518V28.2452C91.2957 28.2368 91.2957 28.2326 91.2957 28.2326C91.2957 28.2326 91.2999 28.2326 91.3083 28.2326ZM96.3385 28.2326H97.4451C97.4535 28.2326 97.4577 28.2326 97.4577 28.2326C97.4577 28.2326 97.4577 28.2368 97.4577 28.2452V29.3518C97.4577 29.3602 97.4577 29.3644 97.4577 29.3644C97.4577 29.3644 97.4535 29.3644 97.4451 29.3644H96.3385C96.3301 29.3644 96.3259 29.3644 96.3259 29.3644C96.3259 29.3644 96.3259 29.3602 96.3259 29.3518V28.2452C96.3259 28.2368 96.3259 28.2326 96.3259 28.2326C96.3259 28.2326 96.3301 28.2326 96.3385 28.2326Z" fill="#181818"/>
</svg>
